<?xml version="1.0" encoding="UTF-8" standalone="no"?>
<!-- Created with Inkscape (http://www.inkscape.org/) -->

<svg
   xmlns:dc="http://purl.org/dc/elements/1.1/"
   xmlns:cc="http://creativecommons.org/ns#"
   xmlns:rdf="http://www.w3.org/1999/02/22-rdf-syntax-ns#"
   xmlns:svg="http://www.w3.org/2000/svg"
   xmlns="http://www.w3.org/2000/svg"
   xmlns:sodipodi="http://sodipodi.sourceforge.net/DTD/sodipodi-0.dtd"
   xmlns:inkscape="http://www.inkscape.org/namespaces/inkscape"
   id="svg2985"
   version="1.1"
   inkscape:version="0.48.5 r10040"
   width="512"
   height="512"
   xml:space="preserve"
   sodipodi:docname="deveciHive-logo.svg"><metadata
     id="metadata2991"><rdf:RDF><cc:Work
         rdf:about=""><dc:format>image/svg+xml</dc:format><dc:type
           rdf:resource="http://purl.org/dc/dcmitype/StillImage" /><dc:title></dc:title></cc:Work></rdf:RDF></metadata><defs
     id="defs2989"><clipPath
       clipPathUnits="userSpaceOnUse"
       id="clipPath2999"><path
         d="M 0,134 432,134 432,0 0,0 0,134 z"
         id="path3001"
         inkscape:connector-curvature="0" /></clipPath><clipPath
       clipPathUnits="userSpaceOnUse"
       id="clipPath3009"><path
         d="m -52.3867,15.1182 104.7734,0 0,-30.2364 -104.7734,0 0,30.2364 z"
         id="path3011"
         inkscape:connector-curvature="0" /></clipPath></defs><sodipodi:namedview
     pagecolor="#ffffff"
     bordercolor="#666666"
     borderopacity="1"
     objecttolerance="10"
     gridtolerance="10"
     guidetolerance="10"
     inkscape:pageopacity="0"
     inkscape:pageshadow="2"
     inkscape:window-width="1076"
     inkscape:window-height="599"
     id="namedview2987"
     showgrid="false"
     inkscape:zoom="0.56111111"
     inkscape:cx="183.64678"
     inkscape:cy="303.51847"
     inkscape:window-x="270"
     inkscape:window-y="197"
     inkscape:window-maximized="0"
     inkscape:current-layer="g2993" /><g
     id="g2993"
     inkscape:groupmode="layer"
     inkscape:label="logo_devhiv"
     transform="matrix(1.25,0,0,-1.25,0,512)"><g
       clip-path="url(#clipPath2999)"
       id="g2997"
       transform="matrix(3.3181676,0,0,3.3000661,33.911209,-16.642751)"><g
         id="g3278"><g
           transform="matrix(3.9767303,0,0,-3.9767303,72.784412,86.152054)"
           id="g3033"><path
             inkscape:connector-curvature="0"
             id="path3035"
             style="fill:#467487;fill-opacity:1;fill-rule:nonzero;stroke:none"
             d="M 0,0 -0.001,-0.001 0.031,0.064 0,0 z" /></g><g
           transform="matrix(3.9767303,0,0,-3.9767303,20.036664,43.390671)"
           id="g3037"><path
             inkscape:connector-curvature="0"
             id="path3039"
             style="fill:#467487;fill-opacity:1;fill-rule:nonzero;stroke:none"
             d="m 0,0 c 0,-0.831 0.076,-1.639 0.217,-2.413 -1.244,-0.276 -2.351,-0.626 -3.265,-1.036 -0.049,0.428 -0.074,0.837 -0.074,1.221 0,0.624 0.038,1.241 0.113,1.837 0.879,0.344 1.916,0.638 3.059,0.877 C 0.017,0.333 0,0.172 0,0" /></g><g
           transform="matrix(3.9767303,0,0,-3.9767303,94.557409,58.784992)"
           id="g3041"><path
             inkscape:connector-curvature="0"
             id="path3043"
             style="fill:#467487;fill-opacity:1;fill-rule:nonzero;stroke:none"
             d="m 0,0 c -0.917,0.527 -2.12,0.975 -3.524,1.326 0.195,0.876 0.301,1.779 0.301,2.685 0,0.066 -0.004,0.131 -0.011,0.194 C -1.911,3.888 -0.764,3.492 0.128,3.03 0.18,2.572 0.207,2.106 0.207,1.643 0.207,1.17 0.136,0.617 0,0" /></g><g
           transform="matrix(3.9767303,0,0,-3.9767303,27.960697,70.726715)"
           id="g3045"><path
             inkscape:connector-curvature="0"
             id="path3047"
             style="fill:#467487;fill-opacity:1;fill-rule:nonzero;stroke:none"
             d="m 0,0 c -1.501,-0.263 -2.829,-0.636 -3.889,-1.102 -0.363,1 -0.652,1.949 -0.854,2.825 0.87,0.447 2.029,0.826 3.37,1.12 C -1.034,1.794 -0.568,0.835 0,0" /></g><g
           transform="matrix(3.9767303,0,0,-3.9767303,78.695424,59.895692)"
           id="g3049"><path
             inkscape:connector-curvature="0"
             id="path3051"
             style="fill:#467487;fill-opacity:1;fill-rule:nonzero;stroke:none"
             d="M 0,0 C 1.584,-0.395 2.781,-0.891 3.515,-1.394 3.242,-2.196 2.883,-3.083 2.449,-4.037 1.425,-3.523 0.085,-3.106 -1.457,-2.808 -0.865,-1.971 -0.371,-1.02 0,0" /></g><g
           transform="matrix(3.9767303,0,0,-3.9767303,49.73767,6.982512)"
           id="g3053"><path
             inkscape:connector-curvature="0"
             id="path3055"
             style="fill:#467487;fill-opacity:1;fill-rule:nonzero;stroke:none"
             d="M 0,0 C 2.361,0 5.738,-0.96 7.632,-2.658 7.559,-2.696 7.48,-2.734 7.398,-2.772 5.299,-2.286 2.796,-2.02 0.139,-2.02 c -2.448,0 -4.808,-0.234 -6.83,-0.663 -0.041,0.022 -0.085,0.042 -0.124,0.064 C -4.763,-0.946 -2.975,0 0,0" /></g><g
           transform="matrix(3.9767303,0,0,-3.9767303,49.572635,104.57943)"
           id="g3057"><path
             inkscape:connector-curvature="0"
             id="path3059"
             style="fill:#467487;fill-opacity:1;fill-rule:nonzero;stroke:none"
             d="M 0,0 C -2.053,0 -3.941,-0.286 -5.331,-0.795 -5.821,0.043 -6.284,0.866 -6.71,1.666 -5.07,2.307 -2.6,2.69 0,2.69 2.676,2.69 5.184,2.291 6.817,1.624 6.355,0.841 5.86,0.03 5.339,-0.798 3.949,-0.287 2.056,0 0,0" /></g><g
           transform="matrix(3.9767303,0,0,-3.9767303,92.452525,38.37323)"
           id="g3061"><path
             inkscape:connector-curvature="0"
             id="path3063"
             style="fill:#467487;fill-opacity:1;fill-rule:nonzero;stroke:none"
             d="m 0,0 c -1.74,0.646 -3.937,1.118 -6.39,1.375 -1.27,0.203 -2.871,0.347 -4.351,0.355 -1.432,0.008 -2.744,-0.112 -3.978,-0.311 -2.243,-0.209 -4.301,-0.596 -6.013,-1.135 0.306,0.954 0.721,1.838 1.257,2.63 2.238,0.823 5.312,1.319 8.734,1.319 3.73,0 7.373,-0.592 9.584,-1.547 C -0.627,1.871 -0.203,0.995 0.109,0.073 0.076,0.049 0.035,0.024 0,0" /></g><g
           transform="matrix(3.9767303,0,0,-3.9767303,49.73767,84.342642)"
           id="g3065"><path
             inkscape:connector-curvature="0"
             id="path3067"
             style="fill:#467487;fill-opacity:1;fill-rule:nonzero;stroke:none"
             d="M 0,0 C 1.576,0 3.331,0.725 4.555,1.872 6.378,1.597 7.937,1.16 9.01,0.606 8.596,-0.22 8.127,-1.097 7.614,-2.009 c -1.86,0.807 -4.637,1.278 -7.655,1.278 -2.907,0 -5.617,-0.443 -7.476,-1.203 -0.464,0.935 -0.881,1.838 -1.241,2.701 1.15,0.52 2.515,0.915 4.328,1.159 C -3.16,0.725 -1.679,0 0,0" /></g><g
           transform="matrix(3.9767303,0,0,-3.9767303,31.852325,113.55053)"
           id="g3069"><path
             inkscape:connector-curvature="0"
             id="path3071"
             style="fill:#467487;fill-opacity:1;fill-rule:nonzero;stroke:none"
             d="M 0,0 C 1.171,0.375 2.761,0.59 4.456,0.59 6.131,0.59 7.706,0.379 8.873,0.012 8.371,-0.762 7.848,-1.548 7.313,-2.335 6.179,-3.392 5.578,-3.438 4.456,-3.438 3.341,-3.438 2.488,-3.252 1.467,-2.311 0.959,-1.537 0.468,-0.763 0,0" /></g><g
           transform="matrix(3.9767303,0,0,-3.9767303,78.695424,59.895692)"
           id="g3073"><path
             inkscape:connector-curvature="0"
             id="path3075"
             style="fill:#467487;fill-opacity:1;fill-rule:nonzero;stroke:none"
             d="M 0,0 C 1.584,-0.395 2.781,-0.891 3.515,-1.394 3.242,-2.196 2.883,-3.083 2.449,-4.037 1.425,-3.523 0.085,-3.106 -1.457,-2.808 -0.865,-1.971 -0.371,-1.02 0,0" /></g><g
           transform="matrix(3.9767303,0,0,-3.9767303,34.935484,65.72876)"
           id="g3077"><path
             inkscape:connector-curvature="0"
             id="path3079"
             style="fill:#467487;fill-opacity:1;fill-rule:nonzero;stroke:none"
             d="m 0,0 c 0,-0.565 0.299,-1.021 0.863,-1.021 l 5.818,0 c 0.563,0 0.795,0.456 0.795,1.021 l 0,5.466 c 0,0.565 -0.232,0.988 -0.795,0.988 l -5.818,0 C 0.299,6.454 0,6.031 0,5.466 L 0,0 z" /></g><path
           inkscape:connector-curvature="0"
           id="path3081"
           style="fill:#467487;fill-opacity:1;fill-rule:nonzero;stroke:none"
           d="m 66.950549,61.786628 -4.57324,0 0,2.28662 4.57324,0 0,-2.28662 z" /><path
           inkscape:connector-curvature="0"
           id="path3083"
           style="fill:#467487;fill-opacity:1;fill-rule:nonzero;stroke:none"
           d="m 66.950549,56.068089 -3.431918,0 0,2.28662 3.431918,0 0,-2.28662 z" /><path
           inkscape:connector-curvature="0"
           id="path3085"
           style="fill:#467487;fill-opacity:1;fill-rule:nonzero;stroke:none"
           d="m 66.950549,50.349551 -3.431918,0 0,2.28662 3.431918,0 0,-2.28662 z" /><path
           inkscape:connector-curvature="0"
           id="path3087"
           style="fill:#467487;fill-opacity:1;fill-rule:nonzero;stroke:none"
           d="m 66.950549,44.63499 -3.431918,0 0,2.28662 3.431918,0 0,-2.28662 z" /><path
           inkscape:connector-curvature="0"
           id="path3089"
           style="fill:#467487;fill-opacity:1;fill-rule:nonzero;stroke:none"
           d="m 34.933893,61.786628 -3.427941,0 0,2.28662 3.427941,0 0,-2.28662 z" /><path
           inkscape:connector-curvature="0"
           id="path3091"
           style="fill:#467487;fill-opacity:1;fill-rule:nonzero;stroke:none"
           d="m 34.933893,56.068089 -3.427941,0 0,2.28662 3.427941,0 0,-2.28662 z" /><path
           inkscape:connector-curvature="0"
           id="path3093"
           style="fill:#467487;fill-opacity:1;fill-rule:nonzero;stroke:none"
           d="m 34.933893,50.349551 -3.427941,0 0,2.28662 3.427941,0 0,-2.28662 z" /><path
           inkscape:connector-curvature="0"
           id="path3095"
           style="fill:#467487;fill-opacity:1;fill-rule:nonzero;stroke:none"
           d="m 34.933893,44.63499 -3.427941,0 0,2.28662 3.427941,0 0,-2.28662 z" /></g></g></g></svg>